<svg width="146" height="146" viewBox="0 0 146 146" fill="none" xmlns="http://www.w3.org/2000/svg">
<path d="M134.989 73.4143C134.989 107.735 107.113 135.557 72.7255 135.557C38.3384 135.557 10.4621 107.735 10.4621 73.4143C10.4621 39.0937 38.3384 11.2714 72.7255 11.2714C107.113 11.2714 134.989 39.0937 134.989 73.4143Z" fill="#00A800"/>
<path fill-rule="evenodd" clip-rule="evenodd" d="M104.091 50.3598C106.533 52.7769 106.548 56.7116 104.126 59.148L67.0649 96.4338C65.8959 97.6099 64.3047 98.2714 62.6448 98.2714C60.9848 98.2714 59.3936 97.6099 58.2246 96.4338L43.4 81.5195C40.9781 79.083 40.9938 75.1484 43.435 72.7312C45.8762 70.3141 49.8185 70.3298 52.2403 72.7662L62.6448 83.2336L95.2861 50.3948C97.7079 47.9583 101.65 47.9427 104.091 50.3598Z" fill="white"/>
<path d="M72.9942 145.5C33.0164 145.5 0.5 112.978 0.5 73.002C0.5 33.0264 33.0164 0.5 72.9942 0.5C112.972 0.5 145.5 33.0225 145.5 73.002C145.5 112.981 112.972 145.5 72.9942 145.5ZM72.9942 4.38229C35.1582 4.37061 4.37082 35.1642 4.37082 73.002C4.37082 110.84 35.1582 141.622 72.9942 141.622C110.83 141.622 141.618 110.836 141.618 73.002C141.618 35.1681 110.834 4.37061 72.9942 4.37061V4.38229Z" fill="#00A800"/>
</svg>
