<svg width="146" height="146" viewBox="0 0 146 146" fill="none" xmlns="http://www.w3.org/2000/svg">
  <circle cx="73" cy="73" r="62" fill="#D32F2F"/>
  <path fill-rule="evenodd" clip-rule="evenodd" d="M98.2486 48.134C100.661 50.5461 100.661 54.4976 98.2486 56.9097L82.1243 73L98.2486 89.0903C100.661 91.5024 100.661 95.4539 98.2486 97.866C95.8364 100.278 91.8849 100.278 89.4728 97.866L73.3485 81.7757L57.2242 97.866C54.8121 100.278 50.8606 100.278 48.4484 97.866C46.0363 95.4539 46.0363 91.5024 48.4484 89.0903L64.5728 73L48.4484 56.9097C46.0363 54.4976 46.0363 50.5461 48.4484 48.134C50.8606 45.7219 54.8121 45.7219 57.2242 48.134L73.3485 64.2243L89.4728 48.134C91.8849 45.7219 95.8364 45.7219 98.2486 48.134Z" fill="white"/>
  <circle cx="73" cy="73" r="72.5" stroke="#D32F2F"/>
</svg>
